<?xml version="1.0" standalone="no"?>
<!DOCTYPE svg PUBLIC "-//W3C//DTD SVG 20010904//EN"
 "http://www.w3.org/TR/2001/REC-SVG-20010904/DTD/svg10.dtd">
<svg version="1.0" xmlns="http://www.w3.org/2000/svg"
 width="512.000000pt" height="512.000000pt" viewBox="0 0 512.000000 512.000000"
 preserveAspectRatio="xMidYMid meet">

<g transform="translate(0.000000,512.000000) scale(0.100000,-0.100000)"
fill="#000000" stroke="none">
<path d="M4590 3619 c0 -25 -70 -151 -112 -201 -42 -51 -122 -108 -180 -129
-21 -7 -38 -17 -38 -21 0 -21 34 -18 84 6 69 34 141 97 182 162 34 53 81 181
70 191 -3 4 -6 0 -6 -8z"/>
<path d="M2006 3457 c-11 -35 -49 -46 -76 -22 -20 18 -27 11 -12 -12 26 -41
108 -11 100 37 l-4 25 -8 -28z"/>
<path d="M1439 3308 c-7 -18 -62 -139 -121 -268 -60 -129 -107 -244 -106 -255
3 -17 9 -20 46 -17 23 2 72 11 108 20 l66 17 67 160 c38 88 71 169 75 181 5
15 -7 41 -42 95 -66 101 -76 108 -93 67z"/>
<path d="M1947 3203 c-4 -3 -7 -18 -7 -32 0 -15 -7 -36 -15 -48 -33 -47 -132
-36 -160 18 -15 28 -35 39 -35 19 0 -24 30 -79 51 -94 15 -10 44 -16 77 -16
48 0 58 4 88 34 34 34 40 58 28 104 -6 22 -15 27 -27 15z"/>
<path d="M2130 3146 c0 -19 -21 -25 -45 -13 -19 9 -19 8 -4 -8 21 -22 59 -12
59 16 0 10 -2 19 -5 19 -3 0 -5 -6 -5 -14z"/>
<path d="M1663 2808 c-20 -43 -666 -1076 -710 -1135 -20 -26 -33 -33 -66 -35
l-42 -3 40 -21 c28 -15 51 -20 78 -16 35 4 45 13 120 113 72 96 85 108 107
104 94 -18 320 -25 494 -15 412 22 456 23 616 5 156 -16 350 -21 418 -10 20 4
83 15 140 26 119 22 271 24 504 8 274 -20 499 16 678 106 202 102 345 258 416
453 33 92 30 109 -7 38 -123 -239 -259 -354 -519 -439 -155 -51 -274 -56 -765
-31 -87 5 -136 1 -235 -16 -69 -12 -168 -24 -220 -27 -91 -5 -128 -2 -372 31
-79 10 -159 12 -310 7 -295 -9 -499 -5 -617 13 -83 13 -107 13 -120 3 -20 -15
-49 -55 252 345 136 180 247 336 247 346 0 20 -43 89 -87 141 l-29 33 -11 -24z"/>
<path d="M261 2739 c-3 -268 136 -530 374 -707 57 -43 246 -142 270 -142 6 0
19 35 29 78 9 42 20 86 22 98 5 17 -4 26 -52 49 -155 76 -369 250 -485 395
-45 56 -118 188 -140 255 l-18 50 0 -76z"/>
<path d="M940 2513 c-14 -2 -83 -18 -153 -35 -76 -18 -140 -28 -158 -24 -16 3
-29 1 -29 -4 0 -26 173 -150 209 -150 25 0 203 29 208 34 1 1 7 34 13 73 17
107 4 122 -90 106z"/>
<path d="M462 1970 c2 -8 15 -15 28 -15 13 0 26 7 28 15 5 13 3 13 -11 1 -14
-11 -20 -11 -34 0 -14 12 -16 12 -11 -1z"/>
<path d="M607 1834 c7 -18 55 -15 59 4 1 7 0 8 -3 2 -6 -13 -43 -13 -43 0 0 6
-4 10 -10 10 -5 0 -7 -7 -3 -16z"/>
<path d="M1333 1582 c-88 -132 -113 -181 -113 -226 0 -26 6 -40 23 -50 47 -31
92 10 122 111 26 92 57 255 48 263 -4 5 -40 -40 -80 -98z m23 -39 c-8 -15 -15
-25 -16 -21 0 12 23 58 27 54 3 -2 -2 -17 -11 -33z"/>
<path d="M1727 1598 c-121 -173 -148 -247 -107 -288 62 -62 119 28 165 262 26
133 19 137 -58 26z m27 -29 c-32 -79 -44 -102 -50 -96 -3 3 11 42 32 86 44 96
55 102 18 10z"/>
<path d="M2092 1568 c-95 -143 -118 -199 -101 -240 28 -69 105 -29 137 72 23
69 61 275 53 283 -4 4 -44 -48 -89 -115z m38 -19 c-31 -73 -50 -105 -50 -81 0
15 72 163 77 159 2 -2 -11 -37 -27 -78z"/>
<path d="M2863 1573 c-118 -176 -138 -247 -78 -275 34 -15 71 11 97 68 25 57
79 306 68 317 -4 5 -44 -45 -87 -110z m41 -11 c-20 -51 -45 -102 -55 -114
l-20 -23 6 25 c8 29 97 211 102 207 1 -2 -13 -45 -33 -95z"/>
<path d="M2533 1653 c-151 -205 -194 -312 -139 -348 58 -38 101 20 140 188 44
188 44 220 -1 160z m-13 -89 c-40 -98 -60 -132 -60 -104 0 17 92 212 97 207 2
-2 -15 -48 -37 -103z"/>
<path d="M3291 1571 c-23 -61 -51 -120 -62 -133 l-19 -23 6 30 c4 17 29 75 56
130 56 113 54 113 -24 0 -109 -157 -134 -238 -84 -270 20 -14 29 -14 48 -4 33
17 45 36 67 104 22 68 65 265 58 271 -2 2 -23 -45 -46 -105z"/>
<path d="M475 1612 c-13 -60 22 -115 83 -132 47 -12 87 -3 122 30 24 22 30 36
30 69 0 43 -14 55 -25 22 -3 -11 -15 -31 -26 -45 -29 -37 -99 -37 -128 0 -12
15 -21 32 -21 38 0 7 -6 21 -14 31 -13 18 -14 17 -21 -13z"/>
<path d="M1114 1032 c-90 -134 -114 -182 -114 -226 0 -47 36 -74 72 -55 33 17
45 36 67 104 19 57 61 245 61 272 0 28 -18 9 -86 -95z"/>
<path d="M1508 1049 c-79 -113 -128 -206 -128 -243 0 -35 35 -69 63 -61 53 16
78 70 119 262 31 148 24 154 -54 42z m22 -37 c0 -5 -7 -17 -15 -28 -14 -18
-14 -17 -4 9 12 27 19 34 19 19z"/>
<path d="M1872 1018 c-91 -137 -116 -195 -102 -233 23 -62 82 -49 120 26 29
56 89 329 73 329 -5 0 -46 -55 -91 -122z m39 -12 c-16 -36 -32 -66 -36 -66 -5
0 9 38 40 102 31 64 28 34 -4 -36z"/>
<path d="M2653 1038 c-128 -188 -149 -258 -86 -287 59 -27 100 40 139 227 13
64 26 127 29 140 10 43 -13 21 -82 -80z m31 -24 c-35 -87 -75 -150 -59 -94 10
38 85 194 90 188 3 -2 -11 -45 -31 -94z"/>
<path d="M3106 1126 c5 -12 4 -17 -3 -13 -11 7 -119 -144 -158 -221 -33 -66
-33 -116 -1 -137 20 -14 29 -14 48 -4 13 7 28 19 35 28 34 45 102 336 83 355
-8 8 -9 5 -4 -8z m-36 -108 c-37 -93 -62 -137 -68 -119 -4 13 89 214 96 206 3
-2 -10 -42 -28 -87z"/>
<path d="M2275 1048 c-72 -102 -125 -201 -125 -234 0 -85 80 -93 121 -12 32
62 90 328 71 328 -5 0 -35 -37 -67 -82z m37 -4 c-36 -87 -61 -133 -62 -114 0
16 81 192 87 187 2 -2 -10 -35 -25 -73z"/>
<path d="M893 482 c-88 -132 -113 -181 -113 -225 0 -97 109 -66 140 41 14 49
60 262 60 279 0 28 -18 8 -87 -95z"/>
<path d="M1299 514 c-116 -162 -153 -244 -129 -289 10 -19 21 -25 46 -25 55 0
83 57 124 248 32 152 26 160 -41 66z"/>
<path d="M1652 468 c-88 -134 -102 -163 -102 -212 0 -39 15 -56 51 -56 36 0
72 46 93 120 13 45 56 250 56 266 0 21 -30 -15 -98 -118z m39 -5 c-12 -20 -14
-14 -5 12 4 9 9 14 11 11 3 -2 0 -13 -6 -23z"/>
<path d="M2074 525 c-75 -105 -133 -205 -140 -243 -12 -64 23 -98 81 -76 20 8
48 63 68 134 21 78 49 228 45 242 -2 6 -26 -20 -54 -57z m10 -44 c-15 -34 -29
-60 -30 -58 -2 2 8 31 23 65 14 34 28 60 31 58 2 -3 -9 -32 -24 -65z"/>
<path d="M2433 488 c-112 -164 -136 -222 -108 -264 21 -33 67 -32 94 2 11 14
27 46 35 72 26 77 65 276 57 285 -5 5 -40 -38 -78 -95z m37 -9 c-31 -73 -50
-105 -50 -81 0 14 73 163 77 158 2 -1 -11 -36 -27 -77z"/>
<path d="M2856 485 c-36 -90 -56 -123 -56 -93 0 8 18 52 41 99 46 96 43 95
-33 -16 -122 -176 -143 -275 -58 -275 34 0 65 33 85 90 19 52 68 280 62 286
-2 2 -21 -39 -41 -91z"/>
</g>
</svg>
