<?xml version="1.0" standalone="no"?>
<!DOCTYPE svg PUBLIC "-//W3C//DTD SVG 20010904//EN"
 "http://www.w3.org/TR/2001/REC-SVG-20010904/DTD/svg10.dtd">
<svg version="1.0" xmlns="http://www.w3.org/2000/svg"
 width="512.000000pt" height="512.000000pt" viewBox="0 0 512.000000 512.000000"
 preserveAspectRatio="xMidYMid meet">

<g transform="translate(0.000000,512.000000) scale(0.100000,-0.100000)"
fill="#000000" stroke="none">
<path d="M4590 3619 c0 -25 -70 -151 -112 -201 -42 -51 -122 -108 -180 -129
-21 -7 -38 -17 -38 -21 0 -21 34 -18 84 6 69 34 141 97 182 162 34 53 81 181
70 191 -3 4 -6 0 -6 -8z"/>
<path d="M3470 3221 c0 -49 -59 -66 -104 -30 -30 23 -35 12 -8 -21 23 -28 83
-31 112 -5 20 19 28 75 10 75 -5 0 -10 -9 -10 -19z"/>
<path d="M2640 2833 c-57 -126 -132 -290 -168 -366 -85 -183 -85 -184 113
-146 61 12 115 27 122 33 21 19 193 437 193 468 0 29 -34 88 -109 191 -20 26
-38 47 -41 47 -3 0 -53 -102 -110 -227z"/>
<path d="M3397 2883 c-4 -3 -7 -20 -7 -37 0 -49 -33 -93 -80 -107 -70 -21
-129 8 -176 87 -17 27 -27 11 -20 -29 11 -60 46 -100 100 -115 71 -20 129 -9
176 35 45 40 58 84 40 137 -11 35 -20 43 -33 29z"/>
<path d="M3638 2803 c-5 -17 -14 -23 -36 -23 -17 0 -32 6 -35 13 -2 6 -7 9
-11 6 -12 -11 24 -39 48 -39 28 0 49 22 44 47 -3 15 -5 14 -10 -4z"/>
<path d="M261 2739 c-2 -132 25 -241 91 -372 91 -184 233 -324 428 -422 213
-107 404 -146 725 -149 l210 -2 73 -53 74 -54 62 6 c34 3 103 13 153 23 l91
16 11 74 c6 41 11 90 11 109 0 34 -21 65 -45 65 -25 0 -170 -29 -328 -67
l-157 -37 -20 22 c-11 12 -20 27 -20 35 0 10 -16 14 -57 16 -77 3 -248 28
-349 51 -157 37 -313 107 -468 210 -99 67 -252 207 -327 300 -45 56 -118 188
-140 255 l-18 50 0 -76z"/>
<path d="M4457 2441 c-54 -122 -176 -272 -277 -340 -96 -64 -262 -128 -397
-151 -70 -13 -353 -10 -606 6 -93 6 -99 5 -125 -17 l-26 -24 26 36 c103 139
138 194 138 213 0 34 -131 217 -153 215 -7 0 -24 -25 -39 -54 -45 -92 -880
-1421 -925 -1472 -21 -24 -38 -33 -68 -35 -34 -3 -40 0 -46 22 -6 23 -7 23 -8
-7 -1 -28 4 -35 39 -53 38 -20 111 -27 145 -14 9 4 94 108 188 233 95 124 210
276 257 338 47 61 152 199 234 307 l149 196 121 0 c66 0 192 -5 278 -11 274
-20 499 16 678 106 204 103 350 264 420 463 25 72 23 103 -3 43z"/>
<path d="M1431 1263 c-1 -29 32 -48 59 -33 11 6 20 16 20 22 0 7 -5 6 -15 -2
-18 -15 -52 -4 -58 18 -3 12 -5 11 -6 -5z"/>
<path d="M1622 1086 c2 -10 10 -23 19 -29 22 -14 69 0 69 20 0 13 -3 14 -12 5
-17 -17 -49 -15 -65 6 -13 16 -14 16 -11 -2z"/>
<path d="M1454 785 c-3 -14 -4 -44 -1 -67 20 -147 269 -160 305 -16 11 43 7
88 -8 88 -4 0 -17 -20 -29 -44 -26 -57 -54 -76 -112 -76 -60 0 -94 27 -112 88
-16 53 -33 65 -43 27z"/>
</g>
</svg>
